<svg xmlns="http://www.w3.org/2000/svg" xmlns:xlink="http://www.w3.org/1999/xlink" width="135.62" height="132.195" viewBox="0 0 135.62 132.195">
  <defs>
    <clipPath id="clip-path">
      <rect id="Rectángulo_479239" data-name="Rectángulo 479239" width="74.703" height="95.482" fill="none"/>
    </clipPath>
  </defs>
  <g id="Grupo_1214362" data-name="Grupo 1214362" transform="translate(-394 -6382.298)">
    <g id="Grupo_1214361" data-name="Grupo 1214361">
      <g id="Grupo_1214142" data-name="Grupo 1214142" transform="translate(-40 245)">
        <g id="Grupo_1214132" data-name="Grupo 1214132" transform="translate(434 6148.976)">
          <path id="Trazado_1044244" data-name="Trazado 1044244" d="M25.733,6.031C11.872,20.841-.126,62.6,0,83.238c.174,28.3,35.868,52.612,55.094,52.338,32.232-.46,47.795-26.763,49.221-50.621,3.049-51.036-56.146-102.9-78.583-78.924" transform="translate(135.62 7.234) rotate(90)" fill="#5cd172"/>
          <path id="Polígono_47" data-name="Polígono 47" d="M3.739,3.015a2,2,0,0,1,3.468,0L9.222,6.521a2,2,0,0,1-1.734,3H3.457a2,2,0,0,1-1.734-3Z" transform="translate(9.518 73.195) rotate(90)" fill="#cef1d4"/>
          <path id="Polígono_48" data-name="Polígono 48" d="M3.739,3.015a2,2,0,0,1,3.468,0L9.222,6.521a2,2,0,0,1-1.734,3H3.457a2,2,0,0,1-1.734-3Z" transform="translate(93.052 112.779) rotate(135)" fill="#5cd172"/>
          <path id="Polígono_49" data-name="Polígono 49" d="M3.739,3.015a2,2,0,0,1,3.468,0L9.222,6.521a2,2,0,0,1-1.734,3H3.457a2,2,0,0,1-1.734-3Z" transform="translate(129.11 6.729) rotate(135)" fill="#40c4d9"/>
          <path id="Trazado_1044260" data-name="Trazado 1044260" d="M23.647,8.819a9.548,9.548,0,0,0-18.3,0,10.156,10.156,0,0,0-.086,4.834c.6,1.985,2.331,5.438,6.819,10.79a4.934,4.934,0,0,0,.6.691,4.525,4.525,0,0,0,.95.863,1.828,1.828,0,0,0,1.64,0,4.524,4.524,0,0,0,.95-.863,4.934,4.934,0,0,1,.6-.691c4.489-5.266,6.215-8.8,6.733-10.79A8.4,8.4,0,0,0,23.647,8.819ZM18.813,11.5A4.316,4.316,0,1,1,14.5,7.179,4.274,4.274,0,0,1,18.813,11.5Z" transform="translate(111.618 13.751)" fill="#ff9684"/>
        </g>
        <g id="Grupo_1214137" data-name="Grupo 1214137" transform="translate(464.458 6137.298)">
          <g id="Grupo_1214136" data-name="Grupo 1214136" transform="translate(0)" clip-path="url(#clip-path)">
            <path id="Trazado_1055141" data-name="Trazado 1055141" d="M124.5,395.423a3.283,3.283,0,0,1-3.285,3.285h-7.368a3.285,3.285,0,1,1,0,6.57H95.732a3.285,3.285,0,1,1,0-6.57H88.364a3.285,3.285,0,1,1,0-6.57h32.85a3.283,3.283,0,0,1,3.285,3.285" transform="translate(-67.571 -311.441)" fill="#ff904c"/>
            <path id="Trazado_1055142" data-name="Trazado 1055142" d="M49.74,102.7a34.468,34.468,0,0,0-6.471-15.266,29.422,29.422,0,0,1-6.077-18.2,29.874,29.874,0,0,1,28.636-29.3A29.563,29.563,0,0,1,90.286,87.381a34.869,34.869,0,0,0-6.51,15.329,3.585,3.585,0,0,1-3.566,2.91h-26.9A3.586,3.586,0,0,1,49.74,102.7" transform="translate(-29.538 -31.704)" fill="#ffde59"/>
            <path id="Trazado_1055143" data-name="Trazado 1055143" d="M124.327,134.033s-14.648-11.173-14.648-24.956,14.648-24.956,14.648-24.956,14.648,11.173,14.648,24.956-14.648,24.956-14.648,24.956" transform="translate(-87.108 -66.81)" fill="#009245"/>
            <path id="Trazado_1055144" data-name="Trazado 1055144" d="M58.575,83.981a4.937,4.937,0,0,0-4.933-4.929H20.794a4.931,4.931,0,1,0,0,9.862h2.737a4.866,4.866,0,0,0-.3,1.64,4.936,4.936,0,0,0,4.931,4.929H46.276a4.936,4.936,0,0,0,4.931-4.929,4.871,4.871,0,0,0-.3-1.64h2.737a4.937,4.937,0,0,0,4.933-4.933m-39.421,0a1.64,1.64,0,0,1,1.64-1.637H53.643a1.638,1.638,0,1,1,0,3.277H20.794a1.643,1.643,0,0,1-1.64-1.64m28.76,6.572a1.638,1.638,0,0,1-1.638,1.637H28.16a1.638,1.638,0,1,1,0-3.276H46.276a1.641,1.641,0,0,1,1.638,1.64m11.032-75.18A31.14,31.14,0,0,0,36.241,6.582,31.489,31.489,0,0,0,6.008,37.521a30.893,30.893,0,0,0,6.416,19.212,32.978,32.978,0,0,1,6.154,14.543,5.2,5.2,0,0,0,5.191,4.286h26.9a5.2,5.2,0,0,0,5.188-4.28,33.477,33.477,0,0,1,6.2-14.611,31.2,31.2,0,0,0-3.111-41.3M24.217,42.267a20.67,20.67,0,0,1,1.48-7.429l9.886,5.37v9.728L24.39,44.652a18.356,18.356,0,0,1-.173-2.385m26,0a18.327,18.327,0,0,1-.173,2.385L38.876,49.925V40.2l9.864-5.357a20.666,20.666,0,0,1,1.48,7.429m-11.344,11.3,10.2-4.813c-2.207,6.5-7.12,11.914-10.2,14.832Zm0-17.118V20.95a43.893,43.893,0,0,1,8.488,10.887Zm-3.293.012-8.511-4.623a43.94,43.94,0,0,1,8.511-10.909Zm0,17.117V63.605c-3.077-2.913-8.009-8.343-10.221-14.854Zm23.855,1.1A36.732,36.732,0,0,0,52.617,70.73a1.946,1.946,0,0,1-1.944,1.54h-11.8V68c2.605-2.139,12.172-10.674,14.218-21.663a1.662,1.662,0,0,0,.072-.4,22.049,22.049,0,0,0,.347-3.674c0-14.431-14.67-25.788-15.3-26.264l-1-.762-1,.762c-.625.476-15.3,11.833-15.3,26.264,0,12.948,11.78,23.395,14.659,25.754v4.25H23.77a1.944,1.944,0,0,1-1.943-1.547,36.307,36.307,0,0,0-6.788-15.99A27.646,27.646,0,0,1,9.3,37.547,28.165,28.165,0,0,1,36.34,9.875c.3-.009.588-.013.883-.013A27.914,27.914,0,0,1,59.438,54.678m8.841-35.412A1.649,1.649,0,0,1,66,18.8q-.863-1.312-1.846-2.547A1.648,1.648,0,0,1,66.733,14.2c.716.9,1.389,1.833,2.016,2.785a1.65,1.65,0,0,1-.469,2.283m1.59,29.63q.511-1.5.878-3.013a1.663,1.663,0,0,1,1.987-1.215,1.647,1.647,0,0,1,1.212,1.987c-.267,1.106-.588,2.212-.961,3.3a1.646,1.646,0,0,1-1.558,1.116,1.709,1.709,0,0,1-.532-.087,1.648,1.648,0,0,1-1.026-2.09M8.337,17.7a1.646,1.646,0,0,1-1.314-2.637q1.042-1.379,2.193-2.653a1.646,1.646,0,1,1,2.444,2.206q-1.054,1.167-2.006,2.428a1.641,1.641,0,0,1-1.316.656M9.374,58.119q.919,1.268,1.96,2.45a1.646,1.646,0,1,1-2.472,2.174q-1.141-1.3-2.153-2.695a1.645,1.645,0,1,1,2.666-1.929m-5.3-29.884q-.442,1.519-.733,3.055a1.648,1.648,0,0,1-1.616,1.334,1.736,1.736,0,0,1-.312-.029A1.65,1.65,0,0,1,.107,30.666q.323-1.679.8-3.344a1.647,1.647,0,1,1,3.164.913m-.809,15.55q.275,1.543.691,3.061A1.647,1.647,0,0,1,2.8,48.868a1.7,1.7,0,0,1-.436.058A1.646,1.646,0,0,1,.781,47.714Q.327,46.055.025,44.357a1.646,1.646,0,1,1,3.241-.572m70-8.961a1.556,1.556,0,0,1-.211.013A1.648,1.648,0,0,1,71.422,33.4q-.2-1.563-.543-3.09a1.646,1.646,0,1,1,3.212-.72q.376,1.674.6,3.392a1.647,1.647,0,0,1-1.424,1.842M36.723,3.3A1.647,1.647,0,1,1,36.669,0l.6,0q1.416,0,2.841.106A1.647,1.647,0,0,1,39.987,3.4c-.04,0-.082,0-.124,0-.868-.064-1.733-.1-2.6-.1ZM19.387,6.325a1.647,1.647,0,0,1,.727-2.212q1.534-.776,3.135-1.415a1.647,1.647,0,0,1,1.215,3.061c-.973.386-1.929.82-2.865,1.293a1.647,1.647,0,0,1-2.212-.727M66.081,59.588a1.646,1.646,0,0,1,.215,2.318c-.736.888-1.508,1.733-2.317,2.547a1.646,1.646,0,1,1-2.334-2.321q1.107-1.114,2.117-2.328a1.65,1.65,0,0,1,2.318-.215M51.943,6.595a1.646,1.646,0,1,1,1.405-2.978c1.045.492,2.058,1.029,3.037,1.6a1.646,1.646,0,0,1-.831,3.068,1.617,1.617,0,0,1-.828-.225c-.9-.521-1.825-1.013-2.783-1.466" transform="translate(0)"/>
          </g>
        </g>
      </g>
    </g>
  </g>
</svg>
