<svg xmlns="http://www.w3.org/2000/svg" xmlns:xlink="http://www.w3.org/1999/xlink" width="135.62" height="133.98" viewBox="0 0 135.62 133.98">
  <defs>
    <clipPath id="clip-path">
      <rect id="Rectángulo_479238" data-name="Rectángulo 479238" width="100.356" height="106.297" fill="none"/>
    </clipPath>
  </defs>
  <g id="Grupo_1214364" data-name="Grupo 1214364" transform="translate(-1046.711 -6619.594)">
    <g id="Grupo_1214363" data-name="Grupo 1214363">
      <g id="Grupo_1214143" data-name="Grupo 1214143" transform="translate(0.331 701.499)">
        <g id="Grupo_1214131" data-name="Grupo 1214131" transform="translate(1046.38 5931.557)">
          <path id="Trazado_1044244" data-name="Trazado 1044244" d="M25.733,6.031C11.872,20.841-.126,62.6,0,83.238c.174,28.3,35.868,52.612,55.094,52.338,32.232-.46,47.795-26.763,49.221-50.621,3.049-51.036-56.146-102.9-78.583-78.924" transform="translate(135.62 7.235) rotate(90)" fill="#5cd172"/>
          <path id="Polígono_47" data-name="Polígono 47" d="M3.739,3.015a2,2,0,0,1,3.468,0L9.222,6.521a2,2,0,0,1-1.734,3H3.457a2,2,0,0,1-1.734-3Z" transform="translate(9.518 73.196) rotate(90)" fill="#cef1d4"/>
          <path id="Polígono_48" data-name="Polígono 48" d="M3.739,3.015a2,2,0,0,1,3.468,0L9.222,6.521a2,2,0,0,1-1.734,3H3.457a2,2,0,0,1-1.734-3Z" transform="translate(93.052 112.779) rotate(135)" fill="#5cd172"/>
          <path id="Polígono_49" data-name="Polígono 49" d="M3.739,3.015a2,2,0,0,1,3.468,0L9.222,6.521a2,2,0,0,1-1.734,3H3.457a2,2,0,0,1-1.734-3Z" transform="translate(129.11 6.73) rotate(135)" fill="#40c4d9"/>
          <path id="Trazado_1044260" data-name="Trazado 1044260" d="M23.647,8.819a9.548,9.548,0,0,0-18.3,0,10.156,10.156,0,0,0-.086,4.834c.6,1.985,2.331,5.438,6.819,10.79a4.934,4.934,0,0,0,.6.691,4.525,4.525,0,0,0,.95.863,1.828,1.828,0,0,0,1.64,0,4.524,4.524,0,0,0,.95-.863,4.934,4.934,0,0,1,.6-.691c4.489-5.266,6.215-8.8,6.733-10.79A8.4,8.4,0,0,0,23.647,8.819ZM18.813,11.5A4.316,4.316,0,1,1,14.5,7.179,4.274,4.274,0,0,1,18.813,11.5Z" transform="translate(111.618 13.751)" fill="#ff9684"/>
        </g>
        <g id="Grupo_1214135" data-name="Grupo 1214135" transform="translate(1054.564 5918.095)">
          <g id="Grupo_1214134" data-name="Grupo 1214134" clip-path="url(#clip-path)">
            <path id="Trazado_1055137" data-name="Trazado 1055137" d="M138.326,162.355a23.986,23.986,0,1,1,23.985-23.986,24.014,24.014,0,0,1-23.985,23.986" transform="translate(-88.148 -88.182)" fill="#ffde59"/>
            <path id="Trazado_1055138" data-name="Trazado 1055138" d="M98.622,50.311H93.965a37.925,37.925,0,0,0-6.762-16.3l3.3-3.3a6.044,6.044,0,1,0-8.547-8.547l-3.3,3.3a37.923,37.923,0,0,0-16.3-6.761V14.044a6.044,6.044,0,0,0-12.089,0V18.7a37.923,37.923,0,0,0-16.3,6.761l-3.3-3.3a6.044,6.044,0,0,0-8.547,8.547l3.3,3.3a37.925,37.925,0,0,0-6.762,16.3H14A6.044,6.044,0,0,0,14,62.4h4.658A37.927,37.927,0,0,0,25.42,78.7L22.12,82a6.044,6.044,0,1,0,8.547,8.547l3.3-3.3a37.923,37.923,0,0,0,16.3,6.761H62.356a37.923,37.923,0,0,0,16.3-6.761l3.3,3.3A6.044,6.044,0,0,0,90.5,82l-3.3-3.3a37.927,37.927,0,0,0,6.762-16.3h4.658a6.044,6.044,0,0,0,0-12.089m-42.311,37.2A30.974,30.974,0,1,1,87.285,56.535,30.974,30.974,0,0,1,56.311,87.509M52.744,69.173a2.75,2.75,0,0,1-3.889,0l-9.132-9.132a3.577,3.577,0,0,1,5.058-5.058l4.074,4.074a2.75,2.75,0,0,0,3.889,0L65.75,46.05a3.577,3.577,0,0,1,5.058,5.058Z" transform="translate(-6.133 -6.167)" fill="#009245"/>
            <path id="Trazado_1055139" data-name="Trazado 1055139" d="M198.493,265.28l-8.6,15.326h0a7.205,7.205,0,0,1-.809,1.153c-.138.161-.3.291-.45.438a4.186,4.186,0,0,1-1.2.946c-.177.111-.34.237-.528.333a7.2,7.2,0,0,1-1.318.517l-28.926,7.938a12.337,12.337,0,0,0-7.421,5.838l.569-1.013a7.159,7.159,0,0,1-10.74,2.063,7.421,7.421,0,0,1-1.549-9.4l-.66,1.175,3.854-6.867h0l.686-1.222s1.692-5.586,12.859-8.723l23.581-6.624a3.576,3.576,0,0,1,4.411,2.476c.023.081,0,.162.018.244l1.457-.41,5.936-10.576c1.744-3.108,4.243-6.149,8.107-3.981s2.854,6.582.728,10.371" transform="translate(-105.234 -195.951)" fill="#ff904c"/>
            <path id="Trazado_1055140" data-name="Trazado 1055140" d="M7.882,42.3a7.88,7.88,0,1,0,0,15.76h3.125a39.705,39.705,0,0,0,5.9,14.267l-2.216,2.216a7.878,7.878,0,0,0,0,11.128A7.966,7.966,0,0,0,20.269,88a7.818,7.818,0,0,0,5.548-2.334l2.216-2.212a38.635,38.635,0,0,0,5.973,3.2l-3.31,5.9a9.29,9.29,0,0,0,2,11.758A9.07,9.07,0,0,0,38.33,106.3a9.18,9.18,0,0,0,1.736-.168,8.979,8.979,0,0,0,5.448-3.433l.061.032.061-.111a10.446,10.446,0,0,1,6.275-4.857l28.838-7.939a6.751,6.751,0,0,0,1.8-.694l.881-.544c.175-.111.444-.276.43-.308a5.567,5.567,0,0,0,.87-.777,3.565,3.565,0,0,0,.573-.565,15.289,15.289,0,0,0,.966-1.374L94.844,70.24v0c4.107-7.36,1.377-10.9-.66-12.379A7.874,7.874,0,0,0,92.474,42.3H89.349a39.585,39.585,0,0,0-5.895-14.231l2.226-2.223A7.884,7.884,0,0,0,74.538,14.686L72.316,16.9A39.79,39.79,0,0,0,58.059,11V7.882a7.882,7.882,0,0,0-15.763,0V11A39.79,39.79,0,0,0,28.04,16.9l-2.223-2.219A7.884,7.884,0,1,0,14.686,25.853L16.9,28.065a39.59,39.59,0,0,0-5.9,14.231ZM91.644,68.45,83.122,83.68a8.9,8.9,0,0,1-.709.981,4.219,4.219,0,0,0-.326.286l-.587.519-.727.455a3.245,3.245,0,0,1-.916.347l-28.924,7.96A14.068,14.068,0,0,0,43.016,99.9l-.039-.022-.068.122a5.319,5.319,0,0,1-7.928,1.45,5.6,5.6,0,0,1-1.092-7.094l3.887-6.933.165-.394a2.343,2.343,0,0,1,.157-.361,12.967,12.967,0,0,1,5.3-4.685,28.5,28.5,0,0,1,6.1-2.409l23.935-6.65A1.674,1.674,0,0,1,75.2,74.034l.048.113c0,.009,0,.018,0,.027a1.751,1.751,0,0,1-1.206,2.155L58.811,80.605a1.832,1.832,0,0,0,.494,3.6,1.809,1.809,0,0,0,.494-.068l15.233-4.277a5.416,5.416,0,0,0,3.906-4.563l.761-.215L86,63.837a11.071,11.071,0,0,1,2.337-3.06,2.541,2.541,0,0,1,3.307-.208c2.219,1.245,2.219,3.9,0,7.882m-19.408.98c-.037.011-.084.007-.12.019l-9.3,2.6a25.247,25.247,0,1,0-12.638,3.417c.172,0,.338-.022.509-.026l-2.166.605a32.551,32.551,0,0,0-6.143,2.378A29.095,29.095,0,1,1,72.236,69.43M50.178,71.8A21.624,21.624,0,1,1,71.8,50.178,21.648,21.648,0,0,1,50.178,71.8M14.349,44.415a35.924,35.924,0,0,1,6.414-15.48l.924-1.271-4.4-4.392a4.3,4.3,0,0,1-.021-5.985,4.235,4.235,0,0,1,5.959-.011l4.4,4.4,1.264-.906a36.286,36.286,0,0,1,15.527-6.421l1.546-.247V7.882a4.216,4.216,0,0,1,8.433,0V14.1l1.546.247a36.286,36.286,0,0,1,15.527,6.421l1.264.906,4.4-4.4a4.232,4.232,0,0,1,5.938-.011,4.3,4.3,0,0,1,.011,6l-4.41,4.4.923,1.271a35.924,35.924,0,0,1,6.414,15.48l.247,1.546h6.221a4.215,4.215,0,1,1,0,8.429h-6.2l-.261,1.525c-.107.648-.218,1.289-.354,1.926a1.766,1.766,0,0,0-.008.493,15.2,15.2,0,0,0-2.838,3.7l-5.1,9.1a5.426,5.426,0,0,0-1.27-1.068A32.833,32.833,0,1,0,38.4,80.958a16.114,16.114,0,0,0-2.536,2.506A35.2,35.2,0,0,1,28.9,79.592l-1.267-.92-4.406,4.4a4.272,4.272,0,0,1-5.949,0,4.23,4.23,0,0,1,0-5.945l4.41-4.41-.924-1.267a35.969,35.969,0,0,1-6.414-15.516L14.1,54.391H7.882a4.215,4.215,0,1,1,0-8.429H14.1Zm51.624-5.827a5.528,5.528,0,0,0-7.653,0L45.31,51.6a.932.932,0,0,1-1.292,0l-4.077-4.073a5.409,5.409,0,1,0-7.649,7.649L41.426,64.3a4.589,4.589,0,0,0,6.479,0L65.97,46.241a5.414,5.414,0,0,0,0-7.652m-2.595,5.057L45.314,61.71a.916.916,0,0,1-1.3,0l-9.134-9.134A1.744,1.744,0,0,1,37.35,50.11l4.073,4.07a4.685,4.685,0,0,0,6.482,0l13.011-13a1.771,1.771,0,0,1,2.463,0,1.741,1.741,0,0,1,0,2.466"/>
          </g>
        </g>
      </g>
    </g>
  </g>
</svg>
