<svg xmlns="http://www.w3.org/2000/svg" xmlns:xlink="http://www.w3.org/1999/xlink" width="80" height="80" viewBox="0 0 80 80">
  <defs>
    <clipPath id="clip-path">
      <rect id="Rectángulo_479362" data-name="Rectángulo 479362" width="65.227" height="59.629" transform="translate(-4 -5)" fill="none" stroke="#194e57" stroke-width="1"/>
    </clipPath>
  </defs>
  <g id="Grupo_1214380" data-name="Grupo 1214380" transform="translate(-742.629 -379)">
    <g id="Grupo_1214379" data-name="Grupo 1214379">
      <g id="Grupo_1119665" data-name="Grupo 1119665" transform="translate(567.111 -5142.08)">
        <rect id="Rectángulo_402006" data-name="Rectángulo 402006" width="80" height="80" rx="5" transform="translate(175.518 5521.08)" fill="#ff9684"/>
        <g id="Grupo_1214346" data-name="Grupo 1214346" transform="translate(187.6 5536.976)">
          <g id="Grupo_1214346-2" data-name="Grupo 1214346" clip-path="url(#clip-path)">
            <path id="Trazado_1055487" data-name="Trazado 1055487" d="M26.149,15.121l-3.117-3.975a.727.727,0,0,1,.572-1.176h1.434a.749.749,0,0,0,.589-1.21l-5.86-7.473a.749.749,0,0,0-1.178,0L12.73,8.76a.749.749,0,0,0,.589,1.21h1.434a.727.727,0,0,1,.572,1.176l-5.6,7.148a1.1,1.1,0,0,0,.864,1.775h1.652" transform="translate(-6.392 -0.674)" fill="none" stroke="#194e57" stroke-linecap="round" stroke-linejoin="round" stroke-width="2"/>
            <path id="Trazado_1055488" data-name="Trazado 1055488" d="M80.282,9.97a.749.749,0,0,0,.589-1.21l-5.86-7.473a.749.749,0,0,0-1.178,0L67.973,8.76" transform="translate(-45.809 -0.674)" fill="none" stroke="#194e57" stroke-linecap="round" stroke-linejoin="round" stroke-width="2"/>
            <path id="Trazado_1055489" data-name="Trazado 1055489" d="M129.9,20.07h1.652a1.1,1.1,0,0,0,.864-1.775l-5.6-7.148a.727.727,0,0,1,.572-1.176h1.434a.749.749,0,0,0,.589-1.21l-5.86-7.473a.749.749,0,0,0-1.178,0l-5.86,7.473" transform="translate(-78.518 -0.674)" fill="none" stroke="#194e57" stroke-linecap="round" stroke-linejoin="round" stroke-width="2"/>
            <path id="Trazado_1055490" data-name="Trazado 1055490" d="M117.344,57.336l5.86-7.473a.748.748,0,0,1,1.178,0l5.86,7.473a.749.749,0,0,1-.589,1.211h-1.434a.727.727,0,0,0-.572,1.176l5.6,7.148a1.1,1.1,0,0,1-.864,1.775h-1.652a.727.727,0,0,0-.572,1.176l5.521,7.041A1.38,1.38,0,0,1,134.6,79.1h-12" transform="translate(-79.081 -33.411)" fill="none" stroke="#194e57" stroke-linecap="round" stroke-linejoin="round" stroke-width="2"/>
            <path id="Trazado_1055491" data-name="Trazado 1055491" d="M19.637,57.336l-5.86-7.473a.748.748,0,0,0-1.178,0l-5.86,7.473a.749.749,0,0,0,.589,1.211H8.762a.727.727,0,0,1,.572,1.176L3.73,66.871a1.1,1.1,0,0,0,.864,1.775H6.246a.727.727,0,0,1,.572,1.176L1.3,76.864A1.38,1.38,0,0,0,2.383,79.1H13.671" transform="translate(-0.674 -33.411)" fill="none" stroke="#194e57" stroke-linecap="round" stroke-linejoin="round" stroke-width="2"/>
            <path id="Trazado_1055492" data-name="Trazado 1055492" d="M92.009,127.374a2.847,2.847,0,0,0-2.847-2.833H80.592a2.847,2.847,0,0,0,0,5.694h8.571A2.847,2.847,0,0,0,92.009,127.374Z" transform="translate(-52.394 -83.931)" fill="none" stroke="#194e57" stroke-linecap="round" stroke-linejoin="round" stroke-width="2"/>
            <path id="Trazado_1055493" data-name="Trazado 1055493" d="M59.718,124.541H56.856a2.847,2.847,0,0,0,0,5.694h2.862" transform="translate(-36.398 -83.931)" fill="none" stroke="#194e57" stroke-linecap="round" stroke-linejoin="round" stroke-width="2"/>
            <path id="Trazado_1055494" data-name="Trazado 1055494" d="M82.348,38.22A4.958,4.958,0,0,1,76.4,44.174a4.907,4.907,0,0,1-3.689-3.689,4.958,4.958,0,0,1,5.953-5.953A4.908,4.908,0,0,1,82.348,38.22Z" transform="translate(-48.914 -23.187)" fill="none" stroke="#194e57" stroke-linecap="round" stroke-linejoin="round" stroke-width="2"/>
            <path id="Trazado_1055495" data-name="Trazado 1055495" d="M56.381,86.454V79.409l2.872,3.468a2.622,2.622,0,0,0,2.019.95h5.265a2.631,2.631,0,1,0,0-5.263H62l-2.371-2.7a10.486,10.486,0,0,0-15.754,0l-2.371,2.7H36.964a2.631,2.631,0,1,0,0,5.263H42.23a2.621,2.621,0,0,0,2.019-.95l2.872-3.468v7.046" transform="translate(-23.138 -48.726)" fill="none" stroke="#194e57" stroke-linecap="round" stroke-linejoin="round" stroke-width="2"/>
          </g>
        </g>
      </g>
    </g>
  </g>
</svg>
