<svg xmlns="http://www.w3.org/2000/svg" xmlns:xlink="http://www.w3.org/1999/xlink" width="121.914" height="116" viewBox="0 0 121.914 116">
  <defs>
    <clipPath id="clip-path">
      <rect id="Rectángulo_479260" data-name="Rectángulo 479260" width="72" height="72" fill="#194e57"/>
    </clipPath>
  </defs>
  <g id="Grupo_1214393" data-name="Grupo 1214393" transform="translate(-1149.145 -7793.188)">
    <circle id="Elipse_13734" data-name="Elipse 13734" cx="58" cy="58" r="58" transform="translate(1155.059 7793.188)" fill="#40c4d9"/>
    <path id="Polígono_59" data-name="Polígono 59" d="M9.273,2.93a2,2,0,0,1,3.448,0l7.5,12.746A2,2,0,0,1,18.5,18.69H3.5a2,2,0,0,1-1.724-3.014Z" transform="translate(1177.912 7823.155) rotate(135)" fill="#ff9684"/>
    <g id="Grupo_1214184" data-name="Grupo 1214184" transform="translate(1176.578 7815)">
      <g id="Grupo_1214184-2" data-name="Grupo 1214184" clip-path="url(#clip-path)">
        <path id="Trazado_1055222" data-name="Trazado 1055222" d="M72.188,36.094A36.122,36.122,0,0,0,28.858.727L28.747.75a6.963,6.963,0,0,0-9.526,3.429A36.085,36.085,0,0,0,44.211,71.251a3.48,3.48,0,0,0,5.855-2.557V67.53h2.329v1.164a3.493,3.493,0,0,0,6.986,0V67.53A2.331,2.331,0,0,0,61.709,65.2V61.51A35.808,35.808,0,0,0,72.188,36.094m-2.329,0a33.474,33.474,0,0,1-8.15,21.991V46.573a2.331,2.331,0,0,0-2.329-2.329H57.052V39.587a2.331,2.331,0,0,0,2.329-2.329V34.93A2.331,2.331,0,0,0,57.052,32.6H53.341a3.466,3.466,0,0,0,.218-1.176,3.527,3.527,0,0,0-1.368-2.778L38.938,18.452A5.83,5.83,0,0,0,36.213,17.3l-5.94-.849V14.507A6.962,6.962,0,0,0,32.6,9.315V6.986A6.944,6.944,0,0,0,31.117,2.7a33.778,33.778,0,0,1,38.743,33.4M12.808,31.437H16.3V42.5a1.746,1.746,0,0,1-3.493,0Zm5.822,8.15h5.822v28.2a33.66,33.66,0,0,1-5.822-2.807Zm8.15,0H32.6V69.679a33.573,33.573,0,0,1-5.822-1.137Zm5.822-16.3V37.258H18.629V23.286H16.3v5.822H12.808V22.6a2.315,2.315,0,0,1,1.823-2.274l6.958-1.546a5.091,5.091,0,0,0,4.026,2.182,5.114,5.114,0,0,0,4.067-2.235l6.2.886a3.492,3.492,0,0,1,1.635.69L40.8,22.826l-2.355,3.14L34.93,23.8v-.513ZM25.615,16.3a6.95,6.95,0,0,0,2.329-.408v1.252a2.977,2.977,0,0,1-2.329,1.484,2.979,2.979,0,0,1-2.329-1.484V15.893a6.95,6.95,0,0,0,2.329.408m17.036,7.946,8.12,6.246a1.176,1.176,0,0,1-.717,2.109h-.491a1.172,1.172,0,0,1-.616-.175l-8.507-5.235Zm2.757,13.012V34.93H57.052v2.329Zm9.315,6.986H47.737V39.587h6.986ZM20.958,6.986a4.657,4.657,0,0,1,9.315,0V9.315a4.657,4.657,0,0,1-9.315,0ZM2.329,36.094A33.7,33.7,0,0,1,18.629,7.2V9.315a6.966,6.966,0,0,0,2.329,5.193v2.024l-6.832,1.518A4.631,4.631,0,0,0,10.479,22.6V42.5a4.079,4.079,0,0,0,4.075,4.075,4.027,4.027,0,0,0,1.746-.409v17.26A33.734,33.734,0,0,1,2.329,36.094M34.93,69.83v-43.3l9.961,6.13A2.327,2.327,0,0,0,43.08,34.93v2.329a2.331,2.331,0,0,0,2.329,2.329v4.657H43.08a2.331,2.331,0,0,0-2.329,2.329V65.2A2.331,2.331,0,0,0,43.08,67.53v1.164a3.508,3.508,0,0,0,.042.419,33.969,33.969,0,0,1-7.028.745c-.39,0-.777-.016-1.164-.029m12.808-1.135a1.164,1.164,0,0,1-2.329,0V67.53h2.329Zm9.315,0a1.164,1.164,0,0,1-2.329,0V67.53h2.329Zm0-3.493V50.066H54.723V65.2H52.394V50.066H50.066V65.2H47.737V50.066H45.408V65.2H43.08V46.573h16.3V65.2Z" fill="#194e57"/>
      </g>
    </g>
  </g>
</svg>
